<?xml version="1.0" encoding="UTF-8"?>
<svg id="Layer_1" data-name="Layer 1" xmlns="http://www.w3.org/2000/svg" viewBox="0 0 384 512">
  <defs>
    <style>
      .cls-1 {
        fill: #7c00fe;
      }

      .cls-2 {
        fill: #fff;
      }
    </style>
  </defs>
  <path class="cls-1" d="M192,29.67C96.79,29.67,19.33,107.13,19.33,202.34c0,74.22,90.71,198.84,144.8,266.55,6.87,8.55,17.03,13.45,27.87,13.45h0c10.84,0,21-4.89,27.89-13.47,23.96-30,58.73-75.82,88.29-123.77,37.49-60.8,56.49-108.83,56.49-142.76,0-95.21-77.46-172.67-172.67-172.67ZM204.29,456.35c-3.06,3.81-7.54,5.99-12.29,5.99s-9.23-2.18-12.27-5.96c-42.21-52.84-140.4-183.38-140.4-254.04,0-84.18,68.49-152.67,152.67-152.67s152.67,68.49,152.67,152.67c0,70.66-98.18,201.19-140.38,254.01Z"/>
  <path class="cls-2" d="M192,49.67c-84.18,0-152.67,68.49-152.67,152.67,0,70.66,98.19,201.2,140.4,254.04,3.04,3.78,7.52,5.96,12.27,5.96s9.23-2.18,12.29-5.99c42.2-52.82,140.38-183.35,140.38-254.01,0-84.18-68.49-152.67-152.67-152.67ZM192,327c-70.14,0-127-56.86-127-127s56.86-127,127-127,127,56.86,127,127-56.86,127-127,127Z"/>
  <path class="cls-1" d="M192,73c-70.14,0-127,56.86-127,127s56.86,127,127,127,127-56.86,127-127-56.86-127-127-127ZM231.89,160.31c8.77,0,15.88,7.11,15.88,15.88s-7.11,15.88-15.88,15.88-15.88-7.11-15.88-15.88,7.11-15.88,15.88-15.88ZM152.52,160.31c8.77,0,15.88,7.11,15.88,15.88s-7.11,15.88-15.88,15.88-15.88-7.11-15.88-15.88,7.11-15.88,15.88-15.88ZM249.59,244.9c-11.06,12.7-30.26,26.54-57.6,26.54s-46.53-13.84-57.6-26.54c-2.88-3.32-2.53-8.33.79-11.21s8.33-2.53,11.21.79h.02c8.88,10.27,24.06,21.08,45.59,21.08s36.71-10.81,45.59-21.08c2.88-3.32,7.89-3.67,11.21-.79s3.67,7.89.79,11.21Z"/>
  <path class="cls-2" d="M249.59,244.9c-11.06,12.7-30.26,26.54-57.6,26.54s-46.53-13.84-57.6-26.54c-2.88-3.32-2.53-8.33.79-11.21s8.33-2.53,11.21.79h.02c8.88,10.27,24.06,21.08,45.59,21.08s36.71-10.81,45.59-21.08c2.88-3.32,7.89-3.67,11.21-.79s3.67,7.89.79,11.21Z"/>
  <circle class="cls-2" cx="231.89" cy="176.19" r="15.88"/>
  <circle class="cls-2" cx="152.52" cy="176.19" r="15.88"/>
</svg>